<svg height="512" viewBox="0 0 512 512" width="512" xmlns="http://www.w3.org/2000/svg"><g id="Flat"><path d="m256 80.16667 32.07174-32.07174a79.09449 79.09449 0 0 1 111.85652 0l.00012.00011a79.09453 79.09453 0 0 1 .02331 111.83322l-143.95169 144.07174-143.95169-144.07174a79.09453 79.09453 0 0 1 .02331-111.83326l.00012-.00011a79.09449 79.09449 0 0 1 111.85652 0z" fill="#e04446"/><path d="m154.71191 67.23-5.42382-15.05273a55.035 55.035 0 0 1 18.71191-3.24856v16a39.086 39.086 0 0 0 -13.28809 2.30129z" fill="#e5585a"/><path d="m127.5542 141.43457a54.91722 54.91722 0 0 1 1.48828-76.36865q.74781-.74781 1.51953-1.46387l10.87599 11.73535q-.54932.509-1.082 1.042a38.96587 38.96587 0 0 0 -1.06055 54.186z" fill="#e5585a"/><g fill="#fdca77"><path d="m16 88h48v16h-48z"/><path d="m39.36 16.095h16v48h-16z" transform="matrix(.259 -.966 .966 .259 -3.626 75.464)"/><path d="m23.36 143.905h48v16h-48z" transform="matrix(.966 -.259 .259 .966 -37.698 17.431)"/><path d="m446.542 88h48v16h-48z"/><path d="m439.182 32.095h48v16h-48z" transform="matrix(.966 -.259 .259 .966 5.405 121.245)"/><path d="m455.182 127.905h16v48h-16z" transform="matrix(.259 -.966 .966 .259 196.573 559.989)"/></g><path d="m448 312-56 88-112 48h-112l-48 48h-96v-16l96.35-96.35a80.754 80.754 0 0 1 57.1-23.65h46.55l1.65991-1.66a130.89074 130.89074 0 0 1 92.56009-38.34h17.78l-72 72h24l72-24 12.1-16.94a93.29 93.29 0 0 1 75.9-39.06z" fill="#fdc5ca"/><path d="m286.63 392-27.32 27.31-11.31-11.31 16-16z" fill="#fc979e"/></g></svg>