<svg id="Capa_1" enable-background="new 0 0 512 512" height="512" viewBox="0 0 512 512" width="512" xmlns="http://www.w3.org/2000/svg"><g><path d="m512 225c0 41.46-34.54 75-76 75h-346c-49.63 0-90-40.37-90-90 0-38.63 25.32-72.74 61.68-85.11 5.51-40.76 43.34-69.26 82.38-64.38 24.96-37.58 66.91-60.51 111.94-60.51 56.82 0 107.96 35.83 127.14 90.4 45.14-4.6 87.71 27.34 96.04 73.57 20.42 14.24 32.82 37.01 32.82 61.03z" fill="#fbe000"/><path d="m512 225c0 41.46-34.54 75-76 75h-180v-300c56.82 0 107.96 35.83 127.14 90.4 45.14-4.6 87.71 27.34 96.04 73.57 20.42 14.24 32.82 37.01 32.82 61.03z" fill="#fabe2c"/><path d="m361 285v90h-75v-90c0-16.54-13.46-30-30-30s-30 13.46-30 30v90h-75v-90c0-57.9 47.1-105 105-105s105 47.1 105 105z" fill="#613d5c"/><path d="m361 285v90h-75v-90c0-16.54-13.46-30-30-30v-75c57.9 0 105 47.1 105 105z" fill="#4b2746"/><g><path d="m121 360v152h270v-152z" fill="#fabe2c"/></g><path d="m256 360h135v152h-135z" fill="#ff9100"/></g></svg>