<svg height="483pt" viewBox="-19 0 483 483.492" width="483pt" xmlns="http://www.w3.org/2000/svg"><path d="m253.917969 291.300781h-195.476563v-162.40625c0-16.792969 13.613282-30.410156 30.410156-30.410156h134.65625c16.792969 0 30.410157 13.617187 30.410157 30.410156zm0 0" fill="#a4c9ff"/><path d="m48.988281 379.625h11.1875c1.238281 0 2.390625.328125 3.417969.863281v-137.300781h-18.023438v137.300781c1.03125-.53125 2.183594-.863281 3.417969-.863281zm0 0" fill="#e0ebfc"/><path d="m45.574219 384.488281c-.71875 0-1.441407-.191406-2.074219-.578125-1.195312-.722656-1.925781-2.023437-1.925781-3.421875v-137.300781c0-2.207031 1.792969-4 4-4h18.023437c2.207032 0 4 1.792969 4 4v137.300781c0 1.398438-.730468 2.695313-1.925781 3.421875-1.195313.722656-2.683594.773438-3.921875.128906-.527344-.277343-1.054688-.414062-1.570312-.414062h-11.191407c-.515625 0-1.039062.136719-1.566406.410156-.582031.304688-1.214844.453125-1.847656.453125zm4-8.863281h10.023437v-128.4375h-10.023437zm0 0" fill="#3762cc"/><path d="m252.203125 379.625h11.183594c1.238281 0 2.390625.328125 3.417969.863281v-137.300781h-18.019532v137.300781c1.027344-.53125 2.179688-.863281 3.417969-.863281zm0 0" fill="#e0ebfc"/><path d="m266.804688 384.488281c-.628907 0-1.265626-.148437-1.847657-.453125-.523437-.273437-1.054687-.410156-1.570312-.410156h-11.183594c-.515625 0-1.046875.136719-1.574219.414062-1.238281.640626-2.726562.59375-3.921875-.128906-1.195312-.726562-1.921875-2.023437-1.921875-3.421875v-137.300781c0-2.207031 1.789063-4 4-4h18.019532c2.210937 0 4 1.792969 4 4v137.300781c0 1.398438-.730469 2.699219-1.925782 3.421875-.632812.386719-1.351562.578125-2.074218.578125zm-14.019532-8.863281h10.019532v-128.4375h-10.019532zm0 0" fill="#3762cc"/><path d="m253.917969 295.300781h-195.476563c-2.210937 0-4-1.789062-4-4v-162.40625c0-18.972656 15.4375-34.410156 34.410156-34.410156h134.65625c18.972657 0 34.40625 15.4375 34.40625 34.410156v162.40625c.003907 2.210938-1.789062 4-3.996093 4zm-191.476563-8h187.472656v-158.40625c0-14.558593-11.847656-26.410156-26.40625-26.410156h-134.65625c-14.5625 0-26.410156 11.851563-26.410156 26.410156zm0 0" fill="#3762cc"/><path d="m244.679688 338.964844h-178.046876c-4.8125 0-8.714843-3.902344-8.714843-8.714844v-30.230469c0-4.8125 3.902343-8.714843 8.714843-8.714843h178.046876c4.8125 0 8.714843 3.902343 8.714843 8.714843v30.230469c0 4.8125-3.902343 8.714844-8.714843 8.714844zm0 0" fill="#a4c9ff"/><path d="m76.957031 243.1875h-44.746093c-2.058594 0-3.726563-1.671875-3.726563-3.730469v-22.371093c0-2.058594 1.667969-3.726563 3.726563-3.726563h44.746093c2.058594 0 3.726563 1.667969 3.726563 3.726563v22.371093c0 2.0625-1.667969 3.730469-3.726563 3.730469zm0 0" fill="#4671c6"/><path d="m280.167969 243.1875h-44.742188c-2.0625 0-3.730469-1.671875-3.730469-3.730469v-22.371093c0-2.058594 1.671876-3.726563 3.730469-3.726563h44.742188c2.058593 0 3.726562 1.667969 3.726562 3.726563v22.371093c0 2.0625-1.667969 3.730469-3.726562 3.730469zm0 0" fill="#4671c6"/><path d="m67.632812 419.707031h177.113282v18.644531h-177.113282zm0 0" fill="#e0ebfc"/><path d="m60.175781 478.433594h-11.1875c-4.117187 0-7.457031-3.335938-7.457031-7.457032v-83.894531c0-4.117187 3.339844-7.457031 7.457031-7.457031h11.1875c4.117188 0 7.457031 3.335938 7.457031 7.457031v83.894531c0 4.121094-3.339843 7.457032-7.457031 7.457032zm0 0" fill="#ffea92"/><path d="m263.386719 478.433594h-11.183594c-4.117187 0-7.460937-3.335938-7.460937-7.457032v-83.894531c0-4.117187 3.339843-7.457031 7.460937-7.457031h11.183594c4.121093 0 7.460937 3.335938 7.460937 7.457031v83.894531c0 4.121094-3.339844 7.457032-7.460937 7.457032zm0 0" fill="#ffea92"/><path d="m302.539062 478.433594h-14.914062c-3.085938 0-5.59375-2.503906-5.59375-5.589844v-202.746094c0-3.089844 2.503906-5.59375 5.59375-5.59375h14.914062c3.089844 0 5.59375 2.503906 5.59375 5.59375v202.746094c0 3.085938-2.503906 5.589844-5.59375 5.589844zm0 0" fill="#ffea92"/><path d="m24.753906 478.433594h-14.914062c-3.085938 0-5.59375-2.503906-5.59375-5.589844v-202.746094c0-3.089844 2.507812-5.59375 5.59375-5.59375h14.914062c3.089844 0 5.59375 2.503906 5.59375 5.59375v202.746094c0 3.085938-2.503906 5.589844-5.59375 5.589844zm0 0" fill="#ffea92"/><path d="m266.804688 360.980469h15.226562v18.644531h-15.226562zm0 0" fill="#e0ebfc"/><path d="m30.347656 360.980469h15.222656v18.644531h-15.222656zm0 0" fill="#e0ebfc"/><g fill="#3762cc"><path d="m244.675781 342.964844h-178.042969c-7.011718 0-12.714843-5.703125-12.714843-12.714844v-30.230469c0-7.011719 5.707031-12.714843 12.714843-12.714843h178.042969c7.011719 0 12.714844 5.707031 12.714844 12.714843v30.230469c.003906 7.011719-5.703125 12.714844-12.714844 12.714844zm-178.042969-47.664063c-2.601562 0-4.714843 2.117188-4.714843 4.71875v30.226563c0 2.605468 2.117187 4.71875 4.714843 4.71875h178.042969c2.601563 0 4.714844-2.117188 4.714844-4.71875v-30.226563c0-2.605469-2.113281-4.71875-4.714844-4.71875zm0 0"/><path d="m76.957031 247.1875h-44.746093c-4.261719 0-7.726563-3.464844-7.726563-7.726562v-22.375c0-4.261719 3.464844-7.726563 7.726563-7.726563h44.746093c4.261719 0 7.726563 3.464844 7.726563 7.726563v22.375c0 4.257812-3.464844 7.726562-7.726563 7.726562zm-44.472656-8h44.203125v-21.828125h-44.203125zm0 0"/><path d="m280.167969 247.1875h-44.742188c-4.265625 0-7.730469-3.464844-7.730469-7.726562v-22.375c0-4.261719 3.464844-7.726563 7.730469-7.726563h44.742188c4.261719 0 7.726562 3.464844 7.726562 7.726563v22.375c0 4.257812-3.464843 7.726562-7.726562 7.726562zm-44.472657-8h44.199219v-21.828125h-44.199219zm0 0"/><path d="m282.03125 383.625h-15.226562c-2.207032 0-4-1.792969-4-4v-18.644531c0-2.207031 1.792968-4 4-4h15.226562c2.207031 0 4 1.792969 4 4v18.644531c0 2.210938-1.789062 4-4 4zm-11.226562-8h7.226562v-10.644531h-7.226562zm0 0"/><path d="m45.570312 383.625h-15.222656c-2.207031 0-4-1.792969-4-4v-18.644531c0-2.207031 1.792969-4 4-4h15.222656c2.210938 0 4 1.792969 4 4v18.644531c0 2.210938-1.789062 4-4 4zm-11.222656-8h7.222656v-10.644531h-7.222656zm0 0"/><path d="m302.539062 482.4375h-14.914062c-5.289062 0-9.59375-4.304688-9.59375-9.59375v-202.746094c0-5.292968 4.304688-9.59375 9.59375-9.59375h14.914062c5.289063 0 9.59375 4.300782 9.59375 9.59375v202.746094c0 5.285156-4.304687 9.59375-9.59375 9.59375zm-14.914062-213.933594c-.878906 0-1.59375.710938-1.59375 1.59375v202.746094c0 .875.714844 1.59375 1.59375 1.59375h14.914062c.875 0 1.59375-.714844 1.59375-1.59375v-202.746094c0-.878906-.714843-1.59375-1.59375-1.59375zm0 0"/><path d="m24.753906 482.4375h-14.914062c-5.292969 0-9.59375-4.304688-9.59375-9.59375v-202.746094c0-5.292968 4.300781-9.59375 9.59375-9.59375h14.914062c5.289063 0 9.59375 4.300782 9.59375 9.59375v202.746094c0 5.285156-4.304687 9.59375-9.59375 9.59375zm-14.914062-213.933594c-.878906 0-1.59375.710938-1.59375 1.59375v202.746094c0 .875.714844 1.59375 1.59375 1.59375h14.914062c.875 0 1.59375-.714844 1.59375-1.59375v-202.746094c0-.878906-.714844-1.59375-1.59375-1.59375zm0 0"/><path d="m60.175781 482.4375h-11.1875c-6.316406 0-11.457031-5.140625-11.457031-11.460938v-83.890624c0-6.320313 5.136719-11.460938 11.457031-11.460938h11.1875c6.316407 0 11.457031 5.140625 11.457031 11.460938v83.890624c0 6.316407-5.136718 11.460938-11.457031 11.460938zm-11.1875-98.8125c-1.902343 0-3.457031 1.550781-3.457031 3.457031v83.894531c0 1.90625 1.550781 3.457032 3.457031 3.457032h11.191407c1.90625 0 3.457031-1.550782 3.457031-3.457032v-83.894531c0-1.90625-1.550781-3.457031-3.457031-3.457031zm0 0"/><path d="m263.386719 482.4375h-11.183594c-6.320313 0-11.460937-5.140625-11.460937-11.460938v-83.890624c0-6.320313 5.140624-11.460938 11.460937-11.460938h11.183594c6.320312 0 11.460937 5.140625 11.460937 11.460938v83.890624c0 6.316407-5.140625 11.460938-11.460937 11.460938zm-11.183594-98.8125c-1.90625 0-3.460937 1.550781-3.460937 3.457031v83.894531c0 1.90625 1.550781 3.457032 3.460937 3.457032h11.183594c1.910156 0 3.460937-1.550782 3.460937-3.457032v-83.894531c0-1.90625-1.550781-3.457031-3.460937-3.457031zm0 0"/><path d="m244.746094 442.351562h-177.113282c-2.207031 0-4-1.792968-4-4v-18.640624c0-2.207032 1.792969-4 4-4h177.113282c2.207031 0 4 1.792968 4 4v18.640624c0 2.207032-1.792969 4-4 4zm-173.113282-8h169.113282v-10.640624h-169.113282zm0 0"/></g><path d="m208.507812 171.390625-.175781.074219c.359375.542968.6875 1.101562.992188 1.679687zm0 0" fill="#6bdddd"/><path d="m224.015625 204.691406-13.828125-29.695312c.949219 2.34375 1.496094 4.878906 1.496094 7.539062v90.832032h9.632812c6.503906 0 11.78125-5.273438 11.78125-11.777344v-16.746094c0-13.671875-3.070312-27.25-9.082031-40.152344zm0 0" fill="#6bdddd"/><path d="m189.398438 161.46875h-66.421876c-12.304687 0-22.277343 9.429688-22.277343 21.0625v116.925781h110.984375v-116.925781c0-11.632812-9.976563-21.0625-22.285156-21.0625zm0 0" fill="#6bdddd"/><path d="m104.074219 171.417969-.203125-.082031-1.132813 2.425781c.394531-.8125.839844-1.589844 1.335938-2.34375zm0 0" fill="#6bdddd"/><path d="m100.695312 182.535156c0-2.792968.585938-5.445312 1.628907-7.882812l-13.960938 29.980468c-6.011719 12.90625-9.082031 26.480469-9.082031 40.152344v16.746094c0 6.503906 5.273438 11.777344 11.78125 11.777344h9.632812zm0 0" fill="#6bdddd"/><path d="m102.738281 177.761719c-.578125 0-1.164062-.125-1.714843-.386719-1.984376-.941406-2.835938-3.308594-1.910157-5.300781l1.128907-2.429688c.902343-1.945312 3.183593-2.828125 5.160156-2.007812l.210937.085937c1.101563.460938 1.941407 1.382813 2.289063 2.523438.351562 1.144531.171875 2.378906-.484375 3.378906-.40625.613281-.769531 1.25-1.078125 1.886719-.695313 1.421875-2.117188 2.25-3.601563 2.25zm0 0" fill="#3762cc"/><path d="m100.695312 277.308594h-9.632812c-8.699219 0-15.78125-7.082032-15.78125-15.78125v-16.742188c0-14.292968 3.183594-28.375 9.453125-41.84375l13.960937-29.980468c.921876-1.976563 3.261719-2.847657 5.257813-1.964844 1.992187.890625 2.90625 3.214844 2.050781 5.222656-.871094 2.035156-1.308594 4.160156-1.308594 6.3125v90.777344c0 2.210937-1.789062 4-4 4zm-4-81.097656-4.707031 10.109374c-5.777343 12.40625-8.707031 25.34375-8.707031 38.464844v16.742188c0 4.289062 3.488281 7.78125 7.78125 7.78125h5.632812zm0 0" fill="#3762cc"/><path d="m209.328125 177.144531c-1.4375 0-2.820313-.777343-3.539063-2.128906-.246093-.464844-.511718-.914063-.800781-1.351563-.652343-.992187-.832031-2.226562-.480469-3.367187.347657-1.140625 1.183594-2.066406 2.285157-2.523437 1.976562-.824219 4.4375-.015626 5.34375 1.929687l.816406 1.753906c.914063 1.964844.097656 4.304688-1.847656 5.269531-.570313.285157-1.179688.417969-1.777344.417969zm0 0" fill="#3762cc"/><path d="m221.316406 277.367188h-9.632812c-2.207032 0-4-1.792969-4-4v-90.832032c0-2.042968-.402344-4.070312-1.203125-6.035156-.8125-2.011719.125-4.304688 2.113281-5.171875 1.992188-.867187 4.304688.011719 5.222656 1.976563l13.828125 29.699218c6.269531 13.464844 9.453125 27.542969 9.453125 41.839844v16.742188c0 8.703124-7.082031 15.78125-15.78125 15.78125zm-5.632812-8h5.628906c4.292969 0 7.785156-3.488282 7.785156-7.78125v-16.742188c0-13.121094-2.933594-26.058594-8.707031-38.460938-.003906 0-.003906 0-.003906 0l-4.707031-10.113281v73.097657zm0 0" fill="#3762cc"/><path d="m211.683594 303.460938h-110.988282c-2.207031 0-4-1.792969-4-4v-116.925782c0-13.820312 11.789063-25.066406 26.28125-25.066406h66.425782c14.492187 0 26.28125 11.246094 26.28125 25.066406v116.925782c0 2.210937-1.792969 4-4 4zm-106.988282-8h102.988282v-112.925782c0-9.410156-8.203125-17.066406-18.285156-17.066406h-66.421876c-10.078124 0-18.28125 7.65625-18.28125 17.066406zm0 0" fill="#3762cc"/><path d="m210.734375 83.863281c-.113281 0-.226563.015625-.339844.019531v-5.078124c0-29.664063-24.269531-53.714844-54.203125-53.714844-29.9375 0-54.207031 24.050781-54.207031 53.714844v5.078124c-.113281-.003906-.222656-.019531-.339844-.019531-9.132812 0-16.535156 7.339844-16.535156 16.390625 0 9.046875 7.402344 16.386719 16.535156 16.386719.597657 0 1.191407-.035156 1.773438-.097656 5.59375 23.761719 27.089843 41.472656 52.773437 41.472656s47.179688-17.710937 52.769532-41.472656c.585937.0625 1.175781.097656 1.773437.097656 9.136719 0 16.539063-7.339844 16.539063-16.386719 0-9.050781-7.402344-16.390625-16.539063-16.390625zm0 0" fill="#f9cfcf"/><path d="m156.1875 162.015625c-26.089844 0-48.597656-16.871094-55.832031-41.414063-10.726563-.660156-19.25-9.535156-19.25-20.347656 0-10.003906 7.292969-18.347656 16.878906-20.0625v-1.386718c0-31.824219 26.109375-57.714844 58.203125-57.714844s58.207031 25.890625 58.207031 57.714844v1.382812c9.585938 1.714844 16.878907 10.058594 16.878907 20.0625 0 10.8125-8.527344 19.6875-19.25 20.351562-7.234376 24.542969-29.742188 41.414063-55.835938 41.414063zm-52.765625-49.472656c1.832031 0 3.457031 1.261719 3.886719 3.082031 5.320312 22.601562 25.417968 38.390625 48.878906 38.390625 23.457031 0 43.554688-15.789063 48.875-38.390625.464844-1.964844 2.324219-3.273438 4.320312-3.058594.445313.046875.894532.074219 1.351563.074219 6.910156 0 12.535156-5.554687 12.535156-12.386719 0-6.8125-5.59375-12.359375-12.480469-12.386718-.144531.007812-.332031.015624-.398437.015624-1.046875 0-2.050781-.414062-2.800781-1.148437-.765625-.753906-1.199219-1.78125-1.199219-2.851563v-5.078124c0-27.414063-22.519531-49.714844-50.203125-49.714844s-50.207031 22.300781-50.207031 49.714844v5.074218c0 1.074219-.429688 2.101563-1.195313 2.851563-.765625.753906-1.835937 1.136719-2.875 1.148437-.058594 0-.28125-.011718-.347656-.015625-6.839844 0-12.460938 5.558594-12.460938 12.386719 0 6.832031 5.625 12.386719 12.535157 12.386719.457031 0 .90625-.027344 1.351562-.074219.148438-.011719.289063-.019531.433594-.019531zm0 0" fill="#3762cc"/><path d="m195.074219 70.785156h28.003906c2.042969 0 3.695313-1.65625 3.695313-3.695312v-20.601563c0-23.464843-19.023438-42.492187-42.492188-42.492187h-1.730469c-6.121093 0-11.085937 4.964844-11.085937 11.085937v32.09375c0 13.039063 10.570312 23.609375 23.609375 23.609375zm0 0" fill="#4671c6"/><path d="m138.363281 70.785156h-48.71875c-2.046875 0-3.710937-1.660156-3.710937-3.710937v-16.949219c0-25.476562 20.652344-46.128906 46.128906-46.128906h28.441406c6.113282 0 11.066406 4.957031 11.066406 11.070312v22.503906c0 18.34375-14.867187 33.214844-33.207031 33.214844zm0 0" fill="#4671c6"/><path d="m223.078125 74.785156h-28.003906c-15.222657 0-27.609375-12.382812-27.609375-27.609375v-32.089843c0-8.316407 6.769531-15.085938 15.085937-15.085938h1.730469c25.636719 0 46.492188 20.855469 46.492188 46.488281v20.601563c0 4.246094-3.449219 7.695312-7.695313 7.695312zm-40.527344-66.785156c-3.90625 0-7.085937 3.179688-7.085937 7.085938v32.089843c0 10.8125 8.796875 19.609375 19.609375 19.609375h27.703125v-20.296875c0-21.21875-17.269532-38.488281-38.492188-38.488281zm0 0" fill="#3762cc"/><path d="m138.359375 74.785156h-48.714844c-4.25 0-7.707031-3.457031-7.707031-7.710937v-16.949219c0-27.640625 22.484375-50.125 50.125-50.125h28.441406c8.308594 0 15.070313 6.761719 15.070313 15.070312v22.5c0 20.523438-16.695313 37.214844-37.214844 37.214844zm-48.425781-8h48.425781c16.109375 0 29.210937-13.105468 29.210937-29.210937v-22.503907c0-3.898437-3.171874-7.070312-7.066406-7.070312h-28.441406c-23.226562 0-42.125 18.898438-42.125 42.125v16.660156zm0 0" fill="#3762cc"/><path d="m209.78125 70.785156c.394531 2.617188.613281 5.292969.613281 8.019532v5.078124c.117188-.003906.226563-.019531.339844-.019531 4.285156 0 8.171875 1.628907 11.113281 4.273438v-17.351563zm0 0" fill="#4671c6"/><path d="m221.847656 92.136719c-.972656 0-1.929687-.351563-2.679687-1.027344-2.324219-2.09375-5.316407-3.246094-8.433594-3.246094-.023437.007813-.207031.015625-.34375.015625-1.046875 0-2.050781-.410156-2.800781-1.148437-.765625-.75-1.199219-1.777344-1.199219-2.851563v-5.074218c0-2.433594-.191406-4.933594-.566406-7.421876-.175781-1.152343.160156-2.324218.921875-3.207031.761718-.882812 1.867187-1.390625 3.035156-1.390625h12.066406c2.207032 0 4 1.789063 4 4v17.351563c0 1.582031-.933594 3.011719-2.375 3.65625-.523437.234375-1.074218.34375-1.625.34375zm-7.453125-11.945313c1.175781.210938 2.332031.527344 3.453125.941406v-6.347656h-3.597656c.097656 1.351563.144531 2.691406.144531 4.023438zm0 0" fill="#3762cc"/><path d="m90.863281 70.785156v17.058594c2.894531-2.476562 6.65625-3.980469 10.777344-3.980469.117187 0 .230469.015625.34375.019531v-5.078124c0-2.726563.21875-5.402344.613281-8.019532zm0 0" fill="#4671c6"/><path d="m90.863281 91.84375c-.570312 0-1.140625-.125-1.675781-.371094-1.417969-.652344-2.324219-2.070312-2.324219-3.628906v-17.058594c0-2.207031 1.789063-4 4-4h11.734375c1.167969 0 2.273438.507813 3.035156 1.394532.757813.878906 1.09375 2.050781.921876 3.207031-.375 2.488281-.570313 4.984375-.570313 7.421875v5.074218c0 1.070313-.429687 2.097657-1.195313 2.851563-.765624.753906-1.835937 1.136719-2.875 1.148437-.070312-.003906-.304687-.015624-.378906-.019531-2.886718 0-5.792968 1.074219-8.074218 3.023438-.738282.628906-1.664063.957031-2.597657.957031zm4-17.058594v6.230469c1.015625-.359375 2.058594-.632813 3.121094-.824219v-1.386718c0-1.328126.050781-2.671876.144531-4.019532zm0 0" fill="#3762cc"/><path d="m168.035156 134.375c-1.65625 0-3-1.34375-3-3 0-.578125-2.84375-2.925781-8.847656-2.925781-6 0-8.84375 2.347656-8.84375 2.925781 0 1.65625-1.347656 3-3 3-1.65625 0-3-1.34375-3-3 0-5.089844 6.378906-8.925781 14.84375-8.925781s14.847656 3.835937 14.847656 8.925781c0 1.65625-1.34375 3-3 3zm0 0" fill="#3762cc"/><path d="m131.171875 106.074219c-3.320313 0-6.023437-2.699219-6.023437-6.019531v-10.035157c0-3.320312 2.703124-6.023437 6.023437-6.023437s6.019531 2.703125 6.019531 6.023437v10.035157c.003906 3.316406-2.699218 6.019531-6.019531 6.019531zm0 0" fill="#3762cc"/><path d="m181.207031 106.074219c-3.320312 0-6.019531-2.699219-6.019531-6.019531v-10.035157c0-3.320312 2.699219-6.023437 6.019531-6.023437 3.320313 0 6.019531 2.703125 6.019531 6.023437v10.035157c0 3.316406-2.699218 6.019531-6.019531 6.019531zm0 0" fill="#3762cc"/><path d="m147.949219 391.929688h-53.964844c-1.519531 0-2.746094-1.230469-2.746094-2.746094v-117.746094c0-9.101562 7.378907-16.480469 16.480469-16.480469h26.496094c9.101562 0 16.480468 7.378907 16.480468 16.480469v117.746094c0 1.515625-1.230468 2.746094-2.746093 2.746094zm0 0" fill="#4671c6"/><path d="m138.707031 391.929688h-39.199219l-6.132812 11.703124c-1.132812 2.164063-1.738281 4.683594-1.738281 7.261719v5.757813c0 1.519531 1 2.746094 2.230469 2.746094h50.484374c1.226563 0 2.226563-1.230469 2.226563-2.746094v-5.757813c0-2.578125-.605469-5.097656-1.738281-7.261719zm0 0" fill="#a4c9ff"/><path d="m218.394531 391.929688h-53.964843c-1.519532 0-2.746094-1.230469-2.746094-2.746094v-117.746094c0-9.101562 7.378906-16.480469 16.480468-16.480469h26.496094c9.101563 0 16.480469 7.378907 16.480469 16.480469v117.746094c0 1.515625-1.230469 2.746094-2.746094 2.746094zm0 0" fill="#4671c6"/><path d="m209.152344 391.929688h-39.199219l-6.132813 11.703124c-1.132812 2.164063-1.734374 4.683594-1.734374 7.261719v5.757813c0 1.519531.996093 2.746094 2.226562 2.746094h50.484375c1.230469 0 2.226563-1.230469 2.226563-2.746094v-5.757813c0-2.578125-.601563-5.097656-1.738282-7.261719zm0 0" fill="#a4c9ff"/><path d="m99.191406 247.269531h56.996094v52.191407h-56.996094zm0 0" fill="#4671c6"/><path d="m156.191406 247.269531h56.996094v52.191407h-56.996094zm0 0" fill="#4671c6"/><path d="m156.191406 158.015625c-7.363281 0-14.355468-1.496094-20.753906-4.132813v13.019532c0 2.449218 2.097656 4.429687 4.683594 4.429687h32.136718c2.589844 0 4.683594-1.980469 4.683594-4.429687v-13.019532c-6.398437 2.636719-13.390625 4.132813-20.75 4.132813zm0 0" fill="#f9cfcf"/><path d="m172.257812 175.332031h-32.136718c-4.789063 0-8.683594-3.78125-8.683594-8.429687v-13.019532c0-1.332031.664062-2.582031 1.773438-3.324218 1.109374-.742188 2.515624-.878906 3.75-.375 12.332031 5.082031 26.121093 5.085937 38.457031 0 1.234375-.503906 2.636719-.367188 3.746093.375 1.113282.746094 1.777344 1.992187 1.777344 3.324218v13.019532c0 4.648437-3.894531 8.429687-8.683594 8.429687zm-32.820312-15.785156v7.355469c0 .175781.265625.429687.683594.429687h32.136718c.417969 0 .683594-.253906.683594-.429687v-7.355469c-10.890625 3.277344-22.617187 3.277344-33.503906 0zm0 0" fill="#3762cc"/><path d="m123.527344 88.40625c-4.273438 0-8.25-1.140625-9.742188-3.832031-.539062-.964844-.1875-2.183594.777344-2.71875.972656-.535157 2.183594-.183594 2.722656.78125.773438 1.394531 5.539063 2.550781 11.257813 1.179687 3.996093-.957031 6.378906-2.671875 6.90625-3.863281.144531-.332031.070312-.460937.015625-.558594-.535156-.964843-.183594-2.183593.78125-2.71875.96875-.535156 2.183594-.1875 2.71875.78125.703125 1.265625.753906 2.726563.144531 4.113281-1.183594 2.6875-4.789063 4.980469-9.636719 6.136719-1.898437.449219-3.957031.699219-5.945312.699219zm0 0" fill="#3762cc"/><path d="m188.851562 88.40625c-1.988281 0-4.046874-.25-5.945312-.703125-4.851562-1.15625-8.453125-3.453125-9.636719-6.136719-.613281-1.382812-.558593-2.84375.140625-4.113281.539063-.96875 1.753906-1.3125 2.71875-.78125.964844.535156 1.316406 1.753906.78125 2.71875-.050781.09375-.125.226563.019532.558594.527343 1.191406 2.910156 2.90625 6.90625 3.863281 5.710937 1.371094 10.484374.214844 11.257812-1.179688.535156-.964843 1.753906-1.3125 2.71875-.78125.964844.539063 1.316406 1.753907.78125 2.71875-1.492188 2.695313-5.46875 3.835938-9.742188 3.835938zm0 0" fill="#3762cc"/><path d="m118.972656 111.648438c-.785156 1.21875-1.25 2.675781-1.269531 4.25-.058594 4.144531 3.09375 7.6875 7.046875 7.902343 4.296875.238281 7.851562-3.34375 7.851562-7.789062 0-1.617188-.46875-3.117188-1.273437-4.363281v-.003907l-5.554687-8.769531c-.296876-.464844-.949219-.464844-1.242188 0l-5.558594 8.769531zm0 0" fill="#e0ebfc"/><path d="m147.949219 395.929688h-53.964844c-3.71875 0-6.746094-3.027344-6.746094-6.746094v-117.746094c0-11.292969 9.1875-20.480469 20.480469-20.480469h26.496094c11.292968 0 20.480468 9.1875 20.480468 20.480469v117.746094c0 3.71875-3.027343 6.746094-6.746093 6.746094zm-52.710938-8h51.457031v-116.492188c0-6.882812-5.597656-12.480469-12.480468-12.480469h-26.496094c-6.878906 0-12.480469 5.597657-12.480469 12.480469zm0 0" fill="#3762cc"/><path d="m144.347656 423.398438h-50.480468c-3.433594 0-6.226563-3.027344-6.226563-6.746094v-5.757813c0-3.230469.757813-6.382812 2.195313-9.121093l6.128906-11.703126c.691406-1.316406 2.054687-2.140624 3.542968-2.140624h39.199219c1.488281 0 2.851563.824218 3.539063 2.140624l6.132812 11.703126c1.4375 2.742187 2.195313 5.894531 2.195313 9.121093v5.757813c0 3.71875-2.792969 6.746094-6.226563 6.746094zm-48.707031-8h46.933594v-4.503907c0-1.9375-.441407-3.808593-1.277344-5.410156l-5.011719-9.554687h-34.355468l-5.011719 9.558593c-.839844 1.597657-1.28125 3.464844-1.28125 5.40625v4.503907zm0 0" fill="#3762cc"/><path d="m214.792969 423.398438h-50.480469c-3.433594 0-6.226562-3.027344-6.226562-6.746094v-5.757813c0-3.230469.761718-6.378906 2.195312-9.121093l6.128906-11.703126c.691406-1.316406 2.054688-2.140624 3.542969-2.140624h39.199219c1.488281 0 2.851562.824218 3.542968 2.140624l6.128907 11.703126c1.4375 2.738281 2.199219 5.890624 2.199219 9.121093v5.757813c0 3.71875-2.796876 6.746094-6.230469 6.746094zm-48.707031-8h46.9375v-4.503907c0-1.941406-.445313-3.808593-1.28125-5.40625l-5.011719-9.558593h-34.355469l-5.007812 9.554687c-.839844 1.601563-1.28125 3.46875-1.28125 5.410156zm0 0" fill="#3762cc"/><path d="m218.394531 395.929688h-53.964843c-3.71875 0-6.746094-3.027344-6.746094-6.746094v-117.746094c0-11.292969 9.1875-20.480469 20.476562-20.480469h26.5c11.292969 0 20.480469 9.1875 20.480469 20.480469v117.746094c0 3.71875-3.023437 6.746094-6.746094 6.746094zm-52.710937-8h51.457031v-116.492188c0-6.882812-5.601563-12.480469-12.480469-12.480469h-26.5c-6.878906 0-12.476562 5.597657-12.476562 12.480469zm0 0" fill="#3762cc"/><path d="m138.929688 233.816406c-1.464844-2.578125-4.203126-4.171875-7.167969-4.171875h-21.589844c-2.96875 0-5.703125 1.59375-7.167969 4.171875l-2.738281 4.824219c-.703125 1.242187-1.074219 2.644531-1.074219 4.070313v6.429687c0 4.855469 3.9375 8.789063 8.789063 8.789063h25.96875c4.855469 0 8.789062-3.9375 8.789062-8.789063v-6.429687c0-1.425782-.367187-2.828126-1.074219-4.070313zm0 0" fill="#f9cfcf"/><path d="m209.375 233.816406c-1.464844-2.578125-4.199219-4.171875-7.167969-4.171875h-21.589843c-2.96875 0-5.703126 1.59375-7.167969 4.171875l-2.738281 4.824219c-.703126 1.242187-1.074219 2.644531-1.074219 4.070313v6.429687c0 4.855469 3.9375 8.789063 8.792969 8.789063h25.964843c4.859375 0 8.792969-3.9375 8.792969-8.789063v-6.429687c0-1.425782-.371094-2.828126-1.074219-4.070313zm0 0" fill="#f9cfcf"/><path d="m133.949219 261.929688h-25.964844c-7.050781 0-12.792969-5.738282-12.792969-12.792969v-6.429688c0-2.109375.550782-4.199219 1.59375-6.042969l2.742188-4.820312c2.164062-3.824219 6.246094-6.199219 10.644531-6.199219h21.589844c4.394531 0 8.472656 2.375 10.644531 6.199219l2.734375 4.820312c1.042969 1.835938 1.597656 3.925782 1.597656 6.042969v6.429688c0 7.054687-5.734375 12.792969-12.789062 12.792969zm-23.777344-28.285157c-1.527344 0-2.9375.824219-3.6875 2.144531l-2.742187 4.824219c-.359376.636719-.550782 1.363281-.550782 2.09375v6.429688c0 2.644531 2.148438 4.792969 4.792969 4.792969h25.964844c2.640625 0 4.789062-2.148438 4.789062-4.792969v-6.429688c0-.734375-.191406-1.457031-.546875-2.089843l-2.738281-4.824219c-.753906-1.324219-2.167969-2.148438-3.691406-2.148438zm0 0" fill="#3762cc"/><path d="m204.394531 261.929688h-25.964843c-7.050782 0-12.789063-5.738282-12.789063-12.792969v-6.429688c0-2.113281.550781-4.203125 1.589844-6.042969l2.742187-4.820312c2.167969-3.824219 6.246094-6.199219 10.644532-6.199219h21.589843c4.398438 0 8.476563 2.375 10.644531 6.199219l2.738282 4.820312c1.042968 1.84375 1.597656 3.933594 1.597656 6.042969v6.429688c0 7.054687-5.738281 12.792969-12.792969 12.792969zm-23.777343-28.285157c-1.523438 0-2.9375.824219-3.6875 2.148438l-2.738282 4.820312c-.363281.632813-.550781 1.359375-.550781 2.09375v6.429688c0 2.644531 2.148437 4.792969 4.789063 4.792969h25.964843c2.644531 0 4.792969-2.148438 4.792969-4.792969v-6.429688c0-.730469-.191406-1.457031-.554688-2.09375l-2.734374-4.820312c-.753907-1.324219-2.164063-2.148438-3.6875-2.148438zm0 0" fill="#3762cc"/><path d="m440.71875 255.566406c-4.441406-1.476562-8.832031-3.046875-9.347656-3.234375 0 0 0 0-.003906 0-12.925782-6.066406-21.976563-14.136719-21.976563-14.136719h.007813c-13.464844-11.144531-23.269532-26.535156-27.40625-44.105468h-.019532c-1.464844-3.785156-5.046875-1.472656-5.046875-1.472656-4.867187 4.425781-7.816406 6.242187-7.816406 6.242187-13.332031 9.347656-29.582031 14.808594-47.105469 14.714844-21.304687-.109375-40.636718-8.410157-55.097656-21.871094l-.003906.023437c-5.191406-2.222656-6.136719 2.679688-6.136719 2.679688h-.011719c-7.007812 30.746094-31.347656 54.816406-62.167968 61.46875l.011718.007812c-3.960937 3.167969-.574218 6.683594-.574218 6.683594l-.015626.007813c13.203126 14.574219 21.234376 33.910156 21.128907 55.121093-.085938 17.5625-5.742188 33.773438-15.253907 47.023438l.011719.011719s-1.777343 2.882812-6.375 7.792969l.007813.003906s-2.101563 4.164062 2.085937 6.308594l-.023437.03125c26.109375 5.824218 47.46875 24.117187 57.511718 48.316406 1.058594 2.761718 1.957032 5.597656 2.714844 8.492187l.011719-.003906s1.648437 4.484375 6.460937 2.632813c.308594-.273438.617188-.546876.9375-.824219.007813-.015625.011719-.035157.019532-.050781.171875-.144532.355468-.273438.527344-.414063 1.242187-1.066406 2.511718-2.085937 3.652343-2.882813v.003907c2.699219-2.039063 4.542969-3.148438 4.542969-3.148438h.003906c2.246094-1.4375 5.25-.605469 6.433594 1.789063l17.203125 34.722656h39.226563l17.792968-35.027344c1.230469-2.417968 4.277344-3.269531 6.574219-1.824218 2.824219 1.773437 5.511719 3.738281 8.09375 5.832031 0 0 .015625-.015625.015625-.015625s8.820312 5.636718 12.265625-3.421875c7.789063-24.875 27.183594-44.558594 51.804687-52.835938l-.003906-.023437c9.542969-3.886719 3.164063-14 3.164063-14-9.761719-13.515625-15.492188-30.117188-15.40625-48.0625.101562-20.355469 7.664062-38.925782 20.070312-53.148438 2.746094-3.160156 1.484375-8.082031-2.488281-9.40625zm0 0" fill="#f9a7a7"/><path d="m403.644531 290.191406c-7.386719-.921875-14.1875 4.242188-15.992187 11.460938l-8.425782 33.726562c-.535156 2.144532-2.460937 3.648438-4.671874 3.648438-2.9375 0-5.191407-2.605469-4.765626-5.511719l10.238282-70.304687c1.246094-8.550782-5.210938-16.441407-14.125-16.65625-7.441406-.175782-13.691406 5.644531-14.765625 13.007812l-10.964844 75.300781c-.351563 2.390625-2.402344 4.164063-4.820313 4.164063-2.6875 0-4.867187-2.179688-4.867187-4.867188v-88.390625c0-8.640625-7.527344-15.523437-16.378906-14.445312-7.390625.898437-12.734375 7.554687-12.734375 15v87.933593c0 2.632813-2.136719 4.769532-4.769532 4.769532-2.371093 0-4.382812-1.738282-4.722656-4.082032l-10.160156-69.773437c-1.261719-8.65625-9.902344-14.417969-18.617188-11.839844-7 2.066407-11.179687 9.265625-10.128906 16.488281l10.15625 69.707032v24.6875c0 2.355468-2.804687 3.589844-4.539062 1.996094l-18.757813-17.21875c-8.039062-10.179688-22.714843-11.753907-32.671875-3.46875-2.773437 2.308593-3.082031 6.46875-.84375 9.300781l12.25 15.511719 51.777344 77.726562c.222656.339844.445312.683594.675781 1.015625l.074219.113281.003906-.003906c3.355469 4.777344 7.628906 8.867188 12.574219 11.996094l-.902344 18.308594h87.371094l-.839844-17.039063c12.273438-6.847656 20.917969-19.390625 22.386719-34.054687h.003906l16.691406-89.589844 7.652344-30.632813c2.09375-8.382812-3.539062-16.882812-12.390625-17.984375zm0 0" fill="#f9cfcf"/><path d="m370.140625 483.492188h-87.371094c-1.097656 0-2.144531-.449219-2.898437-1.242188s-1.152344-1.863281-1.097656-2.957031l.789062-16.039063c-4.507812-3.175781-8.414062-7.066406-11.625-11.605468-.050781-.070313-.105469-.136719-.152344-.210938-.238281-.347656-.425781-.628906-.609375-.910156l-.171875-.257813-51.675781-77.578125-12.148437-15.386718c-3.59375-4.546876-2.957032-11.207032 1.421874-14.851563 5.636719-4.691406 12.742188-6.859375 19.984376-6.101563 7.171874.75 13.613281 4.265626 18.179687 9.90625l16.363281 15.019532v-21.460938l-10.113281-69.421875c-1.359375-9.328125 4.210937-18.3125 12.953125-20.898437 5.21875-1.539063 10.8125-.761719 15.347656 2.144531 4.539063 2.902344 7.585938 7.628906 8.363282 12.957031l10.164062 69.773438c.054688.375.378906.660156.761719.660156.425781 0 .769531-.347656.769531-.773438v-87.933593c0-9.691407 6.988281-17.84375 16.253906-18.96875 5.320313-.644531 10.632813 1.003906 14.605469 4.523437 3.976563 3.523438 6.257813 8.585938 6.257813 13.894532v88.386718c0 .480469.386718.871094.867187.871094.4375 0 .796875-.3125.863281-.746094l10.964844-75.296875c1.375-9.441406 9.238281-16.433593 18.386719-16.433593.140625 0 .285156 0 .429687.003906 5.347656.128906 10.378906 2.527344 13.800782 6.582031 3.425781 4.058594 4.953124 9.398437 4.1875 14.648437l-10.238282 70.304688c-.046875.304688.074219.523438.191406.652344.109376.128906.308594.285156.617188.285156.375 0 .703125-.253906.792969-.621094l8.425781-33.722656c2.351562-9.402344 11.097656-15.636719 20.363281-14.464844 5.3125.660156 10.078125 3.550782 13.078125 7.929688s3.984375 9.84375 2.699219 14.996094l-7.625 30.515624-16.652344 89.382813c-1.542969 14.667969-9.777343 27.792969-22.222656 35.617187l.71875 14.632813c.054687 1.09375-.34375 2.160156-1.097656 2.957031-.761719.789063-1.808594 1.238282-2.902344 1.238282zm-83.171875-8h78.96875l-.632812-12.84375c-.074219-1.519532.71875-2.949219 2.046874-3.6875 11.445313-6.386719 19.050782-17.957032 20.351563-30.957032.019531-.191406.050781-.375.097656-.550781l16.648438-89.375c.015625-.082031.03125-.15625.050781-.234375l7.652344-30.636719c.730468-2.929687.171875-6.042969-1.539063-8.53125-1.730469-2.53125-4.382812-4.132812-7.464843-4.519531-5.15625-.640625-10.265626 3.074219-11.613282 8.46875l-8.425781 33.722656c-.984375 3.933594-4.5 6.679688-8.554687 6.679688-2.5625 0-4.992188-1.113282-6.667969-3.046875-1.675781-1.9375-2.425781-4.503907-2.058594-7.039063l10.238281-70.304687c.4375-2.988281-.429687-6.027344-2.378906-8.335938-1.976562-2.34375-4.777344-3.671875-7.878906-3.746093-.074219-.003907-.152344-.003907-.222656-.003907-5.117188 0-9.699219 4.167969-10.484376 9.585938l-10.96875 75.300781c-.628906 4.328125-4.40625 7.589844-8.777343 7.589844-4.886719 0-8.867188-3.976563-8.867188-8.867188v-88.390625c0-3.019531-1.296875-5.898437-3.558593-7.90625-2.292969-2.03125-5.253907-2.9375-8.339844-2.566406-5.167969.625-9.214844 5.46875-9.214844 11.027344v87.933593c0 4.835938-3.933594 8.773438-8.769531 8.773438-4.328125 0-8.058594-3.230469-8.679688-7.511719l-10.164062-69.769531c-.445313-3.03125-2.175781-5.71875-4.757813-7.371094-2.621094-1.675781-5.734375-2.105468-8.769531-1.207031-4.953125 1.460937-8.089844 6.652344-7.300781 12.070313l10.15625 69.710937c.027344.191406.039062.382813.039062.574219v24.6875c0 2.660156-1.574218 5.070312-4.007812 6.140625-2.433594 1.070312-5.277344.601562-7.234375-1.199219l-18.757813-17.214844c-.15625-.144531-.304687-.300781-.433594-.46875-3.226562-4.085937-7.824218-6.628906-12.9375-7.164062-5.089843-.539063-10.074218.992187-14.039062 4.292968-1.074219.890626-1.191406 2.574219-.265625 3.746094l12.253906 15.511719c.066407.085937.128907.171875.1875.261719l51.96875 78.019531c.140625.214844.28125.433594.429688.644531.027343.035156.050781.070313.078125.105469 3.082031 4.390625 6.929687 8.0625 11.4375 10.917969 1.21875.769531 1.929687 2.136718 1.859375 3.574218zm0 0" fill="#3762cc"/></svg>