<svg height="512" viewBox="0 0 61 61" width="512" xmlns="http://www.w3.org/2000/svg"><g id="017---Statue-of-Liberty" fill="none"><g id="Icons" transform="translate(2 1)"><path id="Shape" d="m51 25c-.8909769-1.2990005-2.0677557-2.3765741-3.44-3.15-4.56-2.63-11.79-2.85-16.56-1.14-2.364785.7607779-4.4203014 2.2655843-5.86 4.29-.1593739-1.3733699-.1054028-2.7631263.16-4.12.3142591-1.7904543 1.0820019-3.470537 2.23-4.88 2.54-3 6.52-4 10.52-4 7.77 0 11.58 3.59 12.66 8.43.3521816 1.4963036.4502154 3.041181.29 4.57z" fill="#607d8b"/><path id="Shape" d="m50.71 20.43c-.3410311-1.6234516-1.0643804-3.1421424-2.11-4.43-2.84-3.4-7.63-4.21-12-3.93 7.13.45 10.86 4.28 11.43 10.08 1.1879924.7194401 2.2022027 1.6926722 2.97 2.85.1602154-1.528819.0621816-3.0736964-.29-4.57z" fill="#37474f"/><g fill="#00bcd4"><path id="Shape" d="m40.92 12.18c-1.9058268-.2396874-3.8341732-.2396874-5.74 0l1.72-11.18c.0916325-.56672795.580912-.98325151 1.155-.98325151s1.0633675.41652356 1.155.98325151z"/><path id="Shape" d="m53.05 4.25c0 .3.29-.53-4.47 11.73-1.3145923-1.5407111-3.0534747-2.6605513-5-3.22l7.42-9.24c.3113637-.37256126.8218152-.51178618 1.27922-.34890545.4574048.16288072.7649717.59340001.77078 1.07890545z"/><path id="Shape" d="m32.53 12.76c-1.9472672.5578128-3.6865901 1.6779367-5 3.22l-4.4-11.31c-.1977372-.53532696.0195841-1.13521165.5143097-1.41967885.4947255-.28446719 1.1225033-.17051451 1.4856903.26967885z"/><path id="Shape" d="m27.48 16c-1.0423865 1.2999679-1.762031 2.8283557-2.1 4.46l-6.88-5.38c-.4583943-.3519225-.5878307-.9875814-.303551-1.4907313s.8955565-.7203059 1.433551-.5092687z"/><path id="Shape" d="m57.5 15.08-6.79 5.35c-.3410311-1.6234516-1.0643804-3.1421424-2.11-4.43l7.77-2.93c.5441089-.2311357 1.1749968-.0161172 1.4647013.4991978.2897044.515315.1455392 1.1660599-.3347013 1.5108022z"/><path id="Shape" d="m57 24.15c-8.09 1.26-5.28.86-6 .86.1578584-1.3700946.1038932-2.756324-.16-4.11l6.2 1c.5136473.1385241.8672271.6086903.8577709 1.1406048-.0094563.5319146-.3795244.9892159-.8977709 1.1093952z"/></g><path id="Shape" d="m51 25c-2.340335.3497969-4.719665.3497969-7.06 0-4.73-.85-5.72-3.66-5.85-5.45 3.6039133-.1080211 7.158339.8597853 10.21 2.78 1.0796459.6878497 2.0001306 1.5981067 2.7 2.67z" fill="#009688"/><path id="Shape" d="m38 19.58c-.41 5.67-7.25 6.18-12.9 5.43 0-.15 1.76-2.8 5.86-4.3 2.2624408-.7858104 4.6452828-1.1682836 7.04-1.13z" fill="#009688"/><path id="Shape" d="m25.14 25c-.64 0 1.78.37-6.09-.85l-.67-2c.34-.34.17-.23 6.92-1.27-.2630327 1.3571488-.3169896 2.7465397-.16 4.12z" fill="#00bcd4"/><path id="Shape" d="m17 18-8 10.16c-.49985769.6373762-1.33480341.9103184-2.11462562.6912672s-1.35051857-.8868367-1.44537438-1.6912672c-1.83-16.57-.82-10.32-3.92-24.74-.12667595-.58975716.01959226-1.205185.39806806-1.67488317.3784758-.46969818.9487258-.7434878 1.55193194-.74511683h9.53c1.1045695 0 2 .8954305 2 2 0 4-.31 1 2 16z" fill="#009688"/><path id="Shape" d="m15 2c0-1.1045695-.8954305-2-2-2h-3c1.1045695 0 2 .8954305 2 2 0 4-.31 1 2 16-8.24 10.49-7.75 9.89-8.06 10.24.39168674.4416743.95848993.6877456 1.54862267.6723173.59013275-.0154283 1.14330397-.29078 1.51137733-.7523173l8-10.16c-2.33-15.14-2-12-2-16z" fill="#00695c"/><path id="Shape" d="m57.66 48.42-3.38 6.94-7.94-7.06 9.67-2c.5580699-.113169 1.1320973.0994148 1.4818395.5487806.3497423.4493657.4148834 1.0580167.1681605 1.5712194z" fill="#009688"/><path id="Shape" d="m54.28 55.36-1 2.08c-.1682534.343391-.5176049.5607653-.9.56h-47.53c-1.04854734.0029529-1.9213628-.8044014-2-1.85-.04-.68-.85-10.64-.85-11.15-1.75-2.63-2-2.82-2-3.61v-8.92c0-.67-.13-.21 4.91-10.29l.55 5c.09485581.8044305.66555217 1.472216 1.44537438 1.6912672s1.61476793-.053891 2.11462562-.6912672l7.98-10.18c1.9 5.71 1.07 3.37 4.81 14.43.28.82-.24.06 9.72 11.57h1.23c.34 0-.25-.24 9 4.39 1.51.76 2.72.31 4.57-.09z" fill="#00bcd4"/><path id="Shape" d="m45.88 48.4-1.52.32c-.8759422.1827916-1.7878798.0665988-2.59-.33l-8.57-4.29c-.31-.13-.35-.1-1.67-.1l-1-1.11.47-5.06c1.48 2.7 3.71 4.84 7.07 5.17 3.36-.33 5.58-2.47 7.06-5.16z" fill="#00695c"/><path id="Shape" d="m32.19 25c-.18 3-2.17 5.2-7 5-.2893441-.0149286-.5579908-.1546148-.7363979-.3828991-.1784071-.2282844-.2490355-.5227244-.1936021-.8071009.74-3.53.74-3.69.74-3.81 2.3837002.3525694 4.8062998.3525694 7.19 0z" fill="#00695c"/><path id="Shape" d="m51.83 28.88c.0608366.2977192-.016999.6069489-.2115328.8403894-.1945337.2334404-.4846581.3657628-.7884672.3596106-4.73.06-6.71-2-6.89-5 2.3744919.3409231 4.7855081.3409231 7.16 0-.01.01.21 1.14.73 3.8z" fill="#00695c"/><path id="Shape" d="m54.54 41.46-2.54 2.54-5-10-.28-.09c.3924867-1.3690363.6964484-2.7619156.91-4.17 1.0340011.2696789 2.102327.3842628 3.17.34l4 10.31c.1351879.3765638.0329138.7974609-.26 1.07z" fill="#009688"/><path id="Shape" d="m53.42 46.83-7.54 1.57-.77-10.56c.6718724-1.2504477 1.2114596-2.5675766 1.61-3.93.42.09-.45-1.33 6.7 12.92z" fill="#009688"/><path id="Shape" d="m47.63 29.74c-.94 6.06-3.48 12.66-9.58 13.26-6.1-.6-8.64-7.18-9.58-13.26 2.1797172-.5408153 3.7127571-2.4942049 3.72-4.74 6.19-1.11 5.69-5.45 5.87-5.45.13 1.79 1.12 4.6 5.85 5.45.0072429 2.2457951 1.5402828 4.1991847 3.72 4.74z" fill="#00bcd4"/><path id="Shape" d="m43.91 25c-6.17-1.11-5.7-5.45-5.87-5.45-.0631398 1.2923403-.5924878 2.5180118-1.49 3.45 1.2067907 1.108668 2.7324786 1.8085249 4.36 2 .0209101 2.234588 1.5510551 4.171949 3.72 4.71-.82 5.32-2.93 11.47-8.08 13 .4892696.1476835.9915652.2481426 1.5.3 6.1-.6 8.64-7.2 9.58-13.26-2.1833266-.5417216-3.7173385-2.5004733-3.72-4.75z" fill="#00838f"/><path id="Shape" d="m31 37.83-.41 5.06-3.81-4.4 2.51-5c.3967343 1.509079.9707288 2.9658837 1.71 4.34z" fill="#00695c"/><path id="Shape" d="m29.27 33.47c0 .1 0-.07-2.51 5l-3.32-3.83 1.76-4.58c1.1008776.0511133 2.2031862-.0634998 3.27-.34.1880108 1.2654949.4552019 2.5179531.8 3.75z" fill="#009688"/></g><g id="Layer_2" fill="#000" transform="translate(0 -1)"><path id="Shape" d="m59.16 22.86-4.51-.69 5.47-4.31c.8605187-.6559058 1.1029772-1.8473037.5672482-2.7873565s-1.6843377-1.338692-2.6872482-.9326435l-5.69 2.16c3.86-10 3.74-9.48 3.74-10 .0157091-.92407453-.5555931-1.75669919-1.4234315-2.07453092s-1.8417554-.0511185-2.4265685.66453092l-7 8.74c-.46-.12-.92-.23-1.4-.31l-1.6-10.49c-.1621984-1.05928643-1.0733676-1.8415567-2.145-1.8415567s-1.9828016.78227027-2.145 1.8415567l-1.61 10.49c-.48.08-.94.19-1.4.31l-7-8.73c-.5759586-.71512569-1.539674-.99033282-2.4064163-.68719758-.8667422.30313523-1.4488697 1.11898691-1.4535837 2.03719758 0 .55-.15 0 3.77 10.1l-5.81-2.2c-.9995607-.3872485-2.1319001.0171584-2.66.95-.09.15.11 1.28-1.27-7.8-.1021299-1.09691574-.1255231-2.19974011-.07-3.3 0-1.65685425-1.3431458-3-3-3h-9.53c-.90568602.00093703-1.76247367.41098233-2.33132413 1.11573562-.56885045.7047533-.78887052 1.62877353-.59867587 2.51426438 3.09 14.45 2.24 9.48 3.34 19.37l-4.56 9.13c-.43.87-.32.59-.32 10.26 0 1.18.5 1.66 2 4l.84 10.89c.12043993 1.5664209 1.42896247 2.7746234 3 2.77h47.53c.767048-.0003302 1.4663342-.4393266 1.8-1.13l4.39-9c.4169129-.8577348.3095088-1.8779469-.2768826-2.6300576s-1.5496047-1.1050818-2.4831174-.9099424l-1.8.32-.75-1.5 2-2c.5863768-.5719823.7646847-1.4437097.45-2.2l-3.61-9.39c.5854646-.4644368.8631614-1.2165321.72-1.95l-.55-2.8 4.91-.75c1.0450431-.1755981 1.8104169-1.0803067 1.8104169-2.14s-.7653738-1.9644019-1.8104169-2.14zm-12 5.35c1.7094274.1331637 3.4278519.0963164 5.13-.11l.59 3c-2.53.07-5-.5-5.75-2.89zm-17.16 12.13 1.13-2.26c.2547339.6554016.5451687 1.2963613.87 1.92l-.19 2.41zm4.88-24.63c3.4151795-.9498954 7.0248205-.9498954 10.44 0 4.07 1.29 6.33 4.4 6.68 8.69-5.86-5.16-18.11-5.08-23.91 0 .0724152-2.0665792.8088015-4.0548221 2.1-5.67l.1-.11c1.1849872-1.4059364 2.7676753-2.4203907 4.54-2.91zm11.28 23.82c-1.1581757 2.4203612-3.4525908 4.0989267-6.11 4.47-5.3-.6-7.54-6.34-8.46-11.6 1.8927046-.7755921 3.2272075-2.5028202 3.5-4.53 2.0209072-.3389556 3.821753-1.4734885 5-3.15 1.178247 1.6765115 2.9790928 2.8110444 5 3.15.2708134 2.0280062 1.6059963 3.7561143 3.5 4.53-.3736393 2.5037019-1.1968805 4.9192205-2.43 7.13zm-17.06-13.33c2.56-2.45 6.19-3.4 9.73-3.57-1.14 3.53-6.04 3.86-9.73 3.57zm-1.85 4.88.58-3c1.7054917.2063878 3.4272401.2432346 5.14.11-.76 2.41-3.21 2.97-5.72 2.89zm14-8.46c3.48.18 7.22 1.15 9.75 3.58-3.65.28-8.58-.04-9.73-3.58zm-15.21 3.3-4.25-.65-.17-.51 4.49-.69c-.0527303.6151639-.0694255 1.2328859-.05 1.85zm-.23 2-.54 2.78c-.1362178.7008593.1115123 1.4211823.65 1.89l-.83 2.16c-.33-.4-.17-.07-2.59-7.34zm2.06 5.17c.5930957-.0104083 1.1846521-.0638823 1.77-.16.16.87.34 1.7.55 2.49-.16.23.2-.47-1.68 3.29l-1.94-2.24zm6.13 11.91-.39-.45.15-1.87c1.5613058 1.8856245 3.8038035 3.0787483 6.24 3.32h.2c2.4066481-.2512782 4.6202856-1.4316457 6.17-3.29l.5 6.89-.66.14c-.6564362.1357453-1.3394242.0477314-1.94-.25-10.04-4.99-8.63-4.49-10.27-4.49zm24.73-29c.09 0 .17 0 .22.15s.3-.16-5.7 4.57c-.2764195-.784157-.638616-1.5353795-1.08-2.24zm-5-9.87c.09-.11.31-.07.28.17l-3.83 9.86c-.8992804-.7667686-1.9110994-1.3907236-3-1.85zm-13.87-3c.0188081-.07582665.0868756-.12907324.165-.12907324s.1461919.05324659.165.12907324l1.52 9.92c-1.1252464-.0800028-2.2547536-.0800028-3.38 0zm-13.75 3c.18-.1-.37-.68 6.75 8.21-1.0912174.4547691-2.1037068 1.0791376-3 1.85-4.17-10.88-3.86-9.98-3.72-10.08zm1.77 12.41c-.4374557.7173236-.7993892 1.4780542-1.08 2.27-6.29-4.95-5.79-4.48-5.76-4.7s-.34-.31 6.87 2.41zm-2.57 3.65-4.31.65c-1.28-3.83-.94-2.5-1.35-5.21.24.26-.43-.28 5.69 4.54zm-20.81-17.98c-.06316303-.29402607.00935232-.60086627.19745571-.83551071.1881034-.23464444.47181926-.37217513.77254429-.37448929h9.53c.5522847 0 1 .44771525 1 1 0 4.1-.3 1.15 1.95 15.72l-7.72 9.82c-.25514317.3215292-.68085562.4544935-1.07364064.335334-.39278501-.1191595-.67286567-.4662408-.70635936-.875334-1.83-16.54-.82-10.13-3.95-24.79zm17.75 54.79 6.63-12.53c.2152795-.479574.0224977-1.0439523-.4411892-1.2916033-.4636868-.2476509-1.0399538-.0940145-1.3188108.3516033l-7.12 13.47h-7l11.77-14.36c.22865-.2750945.2931701-.6512756.1692563-.9868396-.1239139-.3355639-.4174362-.5795305-.77-.64-.3525639-.0604694-.7106063.0717451-.9392563.3468396l-12.88 15.64h-3.5c-.55228475 0-1-.4477153-1-1l11-16.48c.2380487-.2955284.2883109-.7003343.1297641-1.0451054-.1585468-.3447712-.4985809-.570095-.8778815-.5817287-.3793005-.0116337-.7325045.1924276-.9118826.5268341l-9.59 14.38c-.66-8.63-.58-7.95-.69-8.2l11.77-10.87c.2902307-.2353431.4250424-.6128613.3495329-.9788102-.0755094-.3659489-.3487417-.6592718-.7084228-.7605128-.3596812-.101241-.7458002.0064913-1.0011101.279323l-11.52 10.63c-.65-1-.8-1.11-.8-1.51 0-9.71 0-9.07.11-9.39l3.18-6.36.18 1.59c.13550819 1.2100479.98896217 2.2181707 2.16005549 2.5515156s2.42751301-.0742146 3.17994451-1.0315156l6.83-8.69c4.63 13.89 4.28 13.2 5 14l12.6 14.59c.2322226.2715218.5916604.3985291.9429165.3331793s.6409665-.3131284.76-.65.0493061-.7116575-.1829165-.9831793l-1.3-1.5 6.87 3.43c1.8.9 3.23.42 4.73.11l7 6.22-.69 1.39zm36-9.73c.186934-.0386227.3795479.0325571.4964438.183459.1168959.150902.137675.3551932.0535562.526541l-2.8 5.76-5.5-4.86zm-9.42-.08-.7-9.19c.3222089-.5907381.6126229-1.1982708.87-1.82l5 9.94zm5.48-4.88c-3.69-7.39-4.27-8.55-4.41-8.8.22-.82.41-1.68.58-2.59.5519946.0927655 1.1103097.1429135 1.67.15l3.72 9.68zm-.26-18.41c.020391-.603788.0036929-1.2082585-.05-1.81 5.24.81 5 .71 5 .91s.23.11-4.95.9z"/><path id="Shape" d="m37 31h-2c-.5522847 0-1 .4477153-1 1s.4477153 1 1 1h2c.5522847 0 1-.4477153 1-1s-.4477153-1-1-1z"/><path id="Shape" d="m45 31h-2c-.5522847 0-1 .4477153-1 1s.4477153 1 1 1h2c.5522847 0 1-.4477153 1-1s-.4477153-1-1-1z"/><path id="Shape" d="m41 39h-2c-.5522847 0-1 .4477153-1 1s.4477153 1 1 1h2c.5522847 0 1-.4477153 1-1s-.4477153-1-1-1z"/><path id="Shape" d="m39.39 37.79c.59.46 1.89.24 1.89-.79 0-.5522847-.4477153-1-1-1l.72-2.76c.1325483-.5522847-.2077153-1.1074517-.76-1.24s-1.1074517.2077153-1.24.76l-.69 2.76c-.2199369.9166305.2300323 1.862399 1.08 2.27z"/></g></g></svg>